<?xml version="1.0" standalone="no"?><!DOCTYPE svg PUBLIC "-//W3C//DTD SVG 1.1//EN" "http://www.w3.org/Graphics/SVG/1.1/DTD/svg11.dtd"><svg t="1744341225509" class="icon" viewBox="0 0 1024 1024" version="1.1" xmlns="http://www.w3.org/2000/svg" p-id="2426" xmlns:xlink="http://www.w3.org/1999/xlink" width="200" height="200"><path d="M390.304 168.96h-21.712a20.48 20.48 0 1 1 0-40.96h286.736a20.48 20.48 0 1 1 0 40.96H636v243.728l228.608 361.856c0.416 0.528 0.08-0.048 0.416 0.528 18.832 32.688 19.28 66.08 4.832 91.152-14.592 25.28-44.64 39.648-82.912 39.648h-552.16c-38.352 0-67.52-14.336-82.096-39.616-14.416-24.992-10.4-54.112 8.432-86.8 0.32-0.576 2.752-4.096 3.12-4.672L390.352 405.44V168.96h-0.048z m149.392 426.08c88.432 52.848 130.416 41.792 165.072 27.456l-111.36-197.12c-2.672-3.712-2.144-8.224-2.144-12.848V168.96h-156.272v243.568c0 4.624-5.04 9.088-7.648 12.848l-79.68 164.672c52.48-17.856 129.696-32.24 192.032 5.008z m-109.36 115.04a40.64 40.64 0 0 0 0-81.232 40.64 40.64 0 0 0 0 81.216z m184.032 114.272a61.52 61.52 0 0 0 61.44-61.44 61.52 61.52 0 0 0-61.44-61.44 61.52 61.52 0 0 0-61.44 61.44 61.52 61.52 0 0 0 61.44 61.44z m-102.4-287.68a41.008 41.008 0 0 1 0-81.92 41.008 41.008 0 0 1 0 81.92z" fill="#1CC6A1" p-id="2427"></path></svg>