<?xml version="1.0" encoding="UTF-8"?>
<svg viewBox="0 0 335 170.08" xmlns="http://www.w3.org/2000/svg">
  <g fill="#301870">
    <path d="m75.39 25.9c0 1.11-2.03 5.89-2.36 6.87-1.31 4.19-2.16 8.77-2.16 12.31 0 2.95.72 6.68 1.51 6.68 1.37 0 4.71-11.72 5.83-11.72.2 0 .26.26.26.46 0 .52-1.31 6.22-1.57 7.4-.26 1.24-1.24 6.02-1.24 8.58 0 .59 0 1.37.79 2.95.13.26.79 1.7.79 2.62 0 1.05-.85 2.03-2.23 2.03-2.49 0-4.19-3.73-5.3-7.33-1.7-5.24-1.77-8.97-1.77-11 0-2.55.13-5.3 1.64-14.8.72-4.58.79-5.76.79-7.07 0-1.57-.2-3.08-.65-4.45-.33-.98-.39-1.11-.39-1.31s0-.52.52-.52c1.77 0 5.56 4.39 5.56 8.31zm28.87 8.45c0 13.55-.52 18.92-4.06 24.36-3.47 5.43-8.97 8.25-9.82 8.25-.13 0-.33 0-.33-.2s3.21-3.67 3.73-4.39c5.7-7.4 6.15-13.75 6.15-26.25 0-2.23-.13-2.62-1.18-2.62-.65 0-3.54.2-4.06.2-6.42 0-9.3-3.14-9.3-4.52 0-.13.07-.26.2-.26.39 0 1.05.33 1.51.39 1.57.26 3.27.39 4.12.39.98 0 5.89 0 7.66-1.18.33-.26.59-.52.59-2.75s-.59-6.61-1.11-7.79c-.13-.2-.92-1.11-.92-1.31 0-.33.79-.72 1.7-.72 1.83 0 5.7 1.77 5.7 3.08 0 .52-.98 2.49-1.05 2.95-.2 1.05-.2 2.49-.2 3.4 0 1.11.13 1.64.65 1.64.59 0 1.44-.65 1.7-1.05.65-.92.65-.98 1.31-.98.46 0 3.54.46 3.54 2.1 0 1.96-2.23 3.27-3.73 3.99-2.03.98-2.42 1.18-2.62 1.51-.2.39-.2 1.51-.2 1.77z"/>
    <path d="m257.87 137.29c5.49-9.52 11.38-23.72 13.51-34.5.97-4.76 1.25-6.65 2.37-8.59 2.72-4.71 7.81-6.68 12.42-4.02 4.5 2.6 5.5 7.96 2.79 12.66-1.06 1.84-2.26 3.2-6.32 6.45-8.84 7.04-17.57 19.33-23.12 28.95l-4.85 8.39-1.64-.95 4.85-8.39zm-5 28.5c-2.3 3.99-7.59 5.58-11.89 3.1-4.09-2.36-5.52-7.69-3.16-11.78 2.54-4.4 7.85-5.56 11.84-3.26 4.09 2.36 5.62 7.75 3.2 11.94z"/>
    <path d="m239.97 31.21c3.07 1.89 3.39 2.21 3.39 2.92 0 .47-.87 2.68-.95 3.15-.32 1.42-.47 3.07-.47 13.95 0 2.13.08 6.38.24 9.46.08.95.55 5.52.55 6.54 0 .79 0 3.47-1.89 3.47-2.21 0-4.89-3.39-4.89-5.52 0-.79.79-4.25.87-5.04.47-4.25.79-10.32.79-14.5 0-2.84 0-11.11-2.05-11.11-.39 0-.71.32-1.34.95-7.72 7.41-20.96 15.05-22.38 15.05-.24 0-.39-.16-.39-.47 0-.24.08-.39.24-.55 2.05-1.81 4.26-3.62 5.52-4.73 18.6-15.92 24.74-29.31 24.74-31.52 0-.79-.24-1.5-.63-2.21-.08-.16-.55-1.1-.55-1.26 0-.32.39-.63.79-.63 1.18 0 9.14 3.31 9.14 6.3 0 .79-.39 1.34-.71 1.58-2.13 1.73-2.44 2.21-5.36 6.46-1.34 1.89-3.86 4.73-5.36 6.62 0 .47.24.79.71 1.1z"/>
    <path d="m114.55 115.42c4.54 0 13.08-1.34 17.88-2.17 3.42-.57 3.81-.64 3.81-2.3 0-3.13-.39-7.02-.92-8.68-.07-.32-1.12-1.47-1.12-1.79 0-.45.99-.45 1.38-.45 2.89 0 5.46 1.15 5.46 3.19 0 .32-.26 1.66-.26 1.98 0 1.47 1.91 2.42 5.78 4.02 1.64.64 3.35 1.28 5.78 1.28.66 0 3.42-.32 3.94-.32.85 0 3.75.26 3.75 2.49 0 1.66-1.25 2.23-3.55 2.23-1.38 0-7.49-.57-8.74-.57-1.58 0-5.85.13-7.1.64-.92.38-1.05 1.28-1.05 6.89 0 1.79.07 2.23.85 4.15 1.12 2.68 1.91 4.85 1.91 8.62 0 12.38-9.93 20.29-11.96 20.29-.13 0-.33-.06-.33-.26 0-.13 2.69-3.19 3.16-3.83 1.71-2.49 3.68-6.64 3.68-9.38 0-.19 0-.89-.66-.89-.2 0-1.18.13-1.38.13-3.55 0-6.71-3.25-6.71-8.36 0-.83 0-7.85 6.38-8.81 1.84-.26 1.84-.64 1.84-3.89 0-3.45 0-3.83-1.31-3.83-.66 0-7.36 1.21-11.63 2.55-1.12.32-5.92 2.55-7.03 2.55-1.45 0-6.9-2.68-6.9-5.3 0-.26.13-.57.33-.64.66.06 3.81.45 4.73.45zm19.52 10.59c-1.64 0-3.75 2.62-3.75 5.87 0 3.57 2.56 5.11 4.27 5.11 2.56 0 2.63-3.83 2.63-4.85 0-2.3-.66-3.96-.85-4.47-.2-.45-.99-1.66-2.3-1.66zm6.05-15.25c0 1.02.26 1.21 1.18 1.21.26 0 4.54-.13 4.54-1.08 0-.51-4.4-3.51-5-3.38-.46.13-.72 1.6-.72 3.25z"/>
    <path d="m175.94 103.87c1.12 3.77 2.96 6.57 3.48 6.57.26 0 1.51-.45 2.5-1.02 1.38-.83 1.58-.89 2.37-.89 1.38 0 2.17.96 2.17 1.85 0 .19 0 2.36-3.48 3.45-.46.13-.92.26-.92.45s3.42 5.42 4.01 5.42c.26 0 2.37-.7 2.37-1.79 0-.26-.85-1.15-.85-1.4 0-.45.59-.57.92-.64 1.38-.13 3.55-.32 4.14-.32 2.1 0 3.88 1.02 3.88 2.81 0 1.28-.85 2.68-5.78 4.34-1.77.57-1.97.64-1.97.96s.13.45 2.17 3.57c3.16 4.85 4.21 7.66 4.21 10.02 0 2.62-2.1 4.4-3.88 4.4-1.64 0-2.1-.32-6.31-3.19-2.63-1.72-4.86-1.91-6.44-1.91-5.85 0-8.68 3.7-8.68 6.57 0 4.72 5.78 5.04 7.49 5.04 1.05 0 5.46-.45 6.38-.45.72 0 3.09.19 3.09 2.3 0 3.64-6.9 3.64-7.63 3.64-1.97 0-13.02 0-13.02-8.93 0-3.89 3.02-10.02 12.75-10.02 2.23 0 4.08.26 6.31.77.59.13 1.91.38 3.16.38.66 0 1.45-.32 1.45-1.28 0-2.11-2.37-6.96-3.55-9.13-.33-.57-.59-.83-1.05-.83-.2 0-1.84.45-2.17.51-3.55.89-5.98 1.28-9.07 1.28-4.4 0-6.31-.64-7.95-1.85-1.64-1.15-2.3-2.74-2.3-3.32 0-.45.33-.64.53-.64.33 0 1.38.7 1.58.83 2.17 1.15 4.73 1.6 7.36 1.6 5.39 0 10.25-1.66 10.25-2.04s-3.68-6-4.4-6c-.2 0-3.62.57-4.34.57-5.06 0-8.94-3.45-8.94-4.66 0-.19.13-.51.46-.51.2 0 2.1.7 2.56.83 1.45.51 2.23.64 3.62.64s3.94-.26 3.94-.77c0-.13-3.35-5.17-6.71-6.76-1.91-.89-2.1-.96-2.1-1.47s1.12-1.66 2.56-1.66 5.26.7 5.85 2.68z"/>
    <path d="m237.33 137.62c0-5.39-4.54-9.99-11.11-9.99-8.68 0-14.26 9.01-15.45 11.04-1.32 2.23-1.97 3.48-3.75 3.48-1.58 0-1.91-1.31-1.91-1.84 0-1.64.53-3.09 5.19-8.55 4.27-5 4.93-5.85 14.86-19.79 2.17-3.09 3.09-4.47 3.09-5.19 0-.46-.46-.92-1.25-.92-2.43 0-6.31 3.29-7.43 4.21-2.63 2.17-3.55 2.37-4.67 2.37-3.09 0-5.13-4.21-5.13-4.54 0-.2.2-.2 1.58-.2 3.48 0 8.35-1.58 10.19-2.37 4.08-1.78 4.54-1.97 5.98-1.97 2.63 0 6.9 1.64 6.9 4.54 0 1.91-1.51 2.96-4.67 5.13-4.73 3.35-10.52 12.36-10.52 13.48 0 .2.2.46.39.46.39-.13 1.25-.46 1.64-.59 2.1-.79 3.94-1.05 5.78-1.05 8.41 0 14.79 6.24 14.79 13.67 0 8.35-8.09 14.2-16.43 14.2-6.51 0-11.17-3.48-11.17-6.77 0-2.37 2.76-5.32 6.51-5.32 3.09 0 5.65 1.84 7.49 4.21.92 1.18 1.31 1.77 2.23 1.77 2.24 0 6.84-4.01 6.84-9.47zm-16.89 5.91c-1.58 0-2.76 1.25-2.76 2.3 0 1.71 2.83 3.09 5.65 3.09.66 0 1.12-.46 1.12-1.18 0-1.58-1.58-4.21-4.01-4.21z"/>
  </g>
  <path d="m26.04 59.38c.41-.25.57-.41.74-.41.74 0 6.47 4.5 6.47 5.49 0 .49-.66.9-1.88 1.06-1.15.16-1.56.33-2.54.9-9.01 5.32-18.84 8.35-21.21 8.35-.49 0-.98-.16-1.23-.57-.82-1.56-4.34-4.5-5.98-5.65-.33-.25-.41-.33-.41-.49s.33-.16.66-.25c14.58-1.23 23.18-6.8 25.39-8.44zm32.85-1.56c0 .82-.49.9-.98.9-1.06.08-2.54.08-3.77.08-2.95 0-3.52-.16-3.52-.98l.08-1.06c-2.62-.08-8.44-.16-14.01-.16-4.91 0-10.65.08-13.92.16l.08 1.56c0 .82-1.15.82-4.42.82-4.18 0-4.26-.41-4.26-.66v-.16c.98-9.01 1.31-12.45 1.31-17.61 0-9.91-.16-12.37-.25-14.09-1.47 1.39-5.32 4.83-6.31 4.83-.25 0-.57-.16-.82-.33-2.21-1.64-4.83-2.21-6.22-2.78-.41-.16-.66-.25-.66-.41 0-.08.08-.25.41-.41 12.38-7.78 21.38-18.59 24.66-27.11.16-.33.25-.41.41-.41 1.23 0 8.6 2.87 8.6 4.34 0 .57-.74 1.06-1.64 1.39s-1.15.25-2.54 2.21c4.5-.08 8.52-.08 9.83-.08.74 0 1.47-1.15 2.13-1.15.25 0 6.14 2.95 6.14 4.59 0 .33-.33.74-1.23 1.15-.66.33-1.39 1.15-1.8 1.64-1.39 1.64-3.19 4.09-5.16 6.47 4.75 0 7.7-.08 16.63-.49.66 0 .9.08.9.49v.25c-.57 7.37-.66 11.96-.66 19.9 0 4.26.41 9.09.98 16.95v.16zm-32.44-43.65c-1.56 1.97-3.28 4.18-5.24 6.31 3.85.08 7.78.08 11.79.08 1.64-2.13 3.52-4.59 4.59-6.47-1.39 0-6.96 0-11.14.08zm24.49 22.11c-2.54-.08-8.52-.16-14.17-.16-5.16 0-11.14.08-14.33.16v4.42c3.19.08 9.09.16 14.25.16 5.65 0 11.71-.08 14.25-.16zm-.16-10.15s-7.21-.08-14.17-.08-14.01.08-14.01.08 0 1.39-.08 4.5c3.19.08 9.01.16 14.17.16 5.65 0 11.55-.08 14.17-.16-.08-3.11-.08-4.5-.08-4.5zm-14.01 19.98c-5.16 0-11.06.08-14.25.16 0 1.56 0 3.11.08 4.67 3.19.08 9.01.16 14.01.16 5.65 0 11.71-.08 14.25-.16 0-1.56.08-3.11.08-4.67-2.54-.08-8.52-.16-14.17-.16zm26.7 27.03c-.25.33-.57.41-.98.41-2.78 0-22.2-8.35-22.2-10.32 0-.25 4.26-4.01 5.49-4.01.25 0 .41.08.74.25 2.29 1.47 13.76 5.81 24.08 6.8.41.08.74.16.74.33s-.16.41-.66.66c-1.88 1.15-5.65 3.93-7.21 5.9z" fill="#00a0ff"/>
  <path d="m26.78 58.97c-.16 0-.33.16-.74.41-2.21 1.64-10.81 7.21-25.39 8.44-.32.08-.65.08-.65.24s.08.25.41.49c1.64 1.15 5.16 4.1 5.98 5.65.25.41.74.57 1.23.57 2.37 0 12.2-3.03 21.21-8.35.98-.57 1.39-.74 2.54-.9 1.23-.16 1.88-.57 1.88-1.06 0-.98-5.73-5.49-6.47-5.49z" fill="#66c6ff"/>
  <path d="m37.58 14.1v11.94c6.64 0 13.2.08 13.2.08s0 1.39.08 4.5c-2.48.08-7.91.15-13.28.16v5.33c5.4 0 10.94.09 13.36.16v4.26h6.96c0-7.85.09-12.42.65-19.74v-.25c0-.41-.25-.49-.9-.49-8.93.41-11.88.49-16.63.49 1.97-2.38 3.77-4.83 5.16-6.47h-8.61s0 0 0 0v.02z" fill="#66c6ff"/>
  <path d="m85.34 102.48c-1.61 0-5.77.08-8.06.08-9.67 7.97-17.65 11.45-18.07 11.45-.25 0-.51-.09-.68-.25-.93-1.44-4.92-3.31-6.36-4.16-.25-.17-.51-.25-.51-.42 0-.09.17-.25.42-.34 17.05-6.02 27.06-17.22 28.42-20.19.08-.17.17-.25.34-.25.34 0 7.47 3.31 7.47 4.58 0 .34-.51.59-1.27.85-.93.25-2.21 1.7-2.88 2.38l-.42.51h2.71c3.14 0 11.71-.25 11.71-.25 1.53 0 1.53-.85 2.38-.85.59 0 6.11 2.71 6.11 3.82 0 .59-.93 1.1-1.19 1.36-1.53 1.19-1.78 1.44-2.88 2.71-21.13 24.94-45.22 29.69-45.22 29.69-.34 0-.68-.08-.85-.42-1.44-2.29-5.43-4.33-6.7-5.35-.42-.34-.59-.51-.59-.59 0-.25.51-.25.93-.34 10.27-1.44 18.84-4.92 26.05-9.25-2.29-2.04-5.09-3.99-6.36-4.75-.42-.25-.59-.51-.59-.68 0-.51 4.33-4.16 5.34-4.16.76 0 5.18 2.54 8.23 5.09 4.24-3.31 7.81-6.79 10.78-10.27h-8.23zm14.26 22.31c3.48 0 11.88-.25 11.88-.25 1.7 0 1.7-.93 2.46-.93 1.19 0 6.53 3.05 6.53 4.07 0 .76-1.02 1.27-1.27 1.53-1.7 1.27-1.53 1.44-2.54 2.97-19.09 28.93-50.4 32.16-52.52 32.16-.34 0-.76-.09-1.02-.42-1.44-2.54-5.77-5.01-7.04-6.19-.42-.42-.59-.59-.59-.76 0-.08.17-.17.93-.17 12.56-.17 23.84-3.65 32.83-8.82-2.63-2.29-6.19-4.75-7.55-5.51-.42-.25-.68-.51-.68-.76 0-.59 4.41-4.33 5.51-4.33 1.36 0 6.87 3.73 9.67 6.02 5.01-3.82 8.91-8.31 11.54-12.73-3.14 0-5.85.08-8.99.08-1.61 0-5.26.08-7.8.08-11.79 9.93-22.48 14.34-22.82 14.34s-.59-.08-.76-.34c-1.02-1.53-5.18-3.31-6.7-4.24-.34-.17-.51-.34-.51-.42s.17-.25.51-.34c19.17-6.02 31.65-19.6 33.09-22.82.08-.25.25-.34.42-.34.59 0 7.89 3.56 7.89 4.84 0 .42-.59.68-1.53.93q-.85.25-2.97 2.37h2.04z" fill="#ff7030"/>
  <path d="m71.97 127.73c8.67-4.3 20.01-11.73 30.6-24.23 1.1-1.27 1.36-1.53 2.88-2.71.25-.25 1.19-.76 1.19-1.36 0-1.1-5.52-3.82-6.11-3.82-.85 0-.85.85-2.38.85 0 0-8.57.25-11.71.25h-2.71l.42-.51c.68-.68 1.95-2.12 2.88-2.38.76-.25 1.27-.51 1.27-.85 0-1.27-7.13-4.58-7.47-4.58-.17 0-.25.08-.34.25-1.01 2.2-6.79 8.94-16.68 14.73-.21 1.39-.32 2.81-.32 4.26s.11 2.81.31 4.18c3.32-1.83 8.13-4.86 13.46-9.26 2.29 0 6.45-.08 8.06-.08h8.23c-2.97 3.48-6.53 6.96-10.78 10.27-3.05-2.55-7.47-5.09-8.23-5.09-1.02 0-5.34 3.65-5.34 4.16 0 .17.17.42.59.68 1.27.76 4.07 2.71 6.36 4.75-2.75 1.65-5.7 3.18-8.87 4.51 1.28 2.2 2.85 4.21 4.65 5.97z" fill="#ff9464"/>
  <path d="m114.62 123.76c-.29-.1-.52-.15-.68-.15-.76 0-.76.93-2.46.93 0 0-8.4.25-11.88.25h-2.04q2.12-2.12 2.97-2.37c.93-.25 1.53-.51 1.53-.93 0-1.27-7.3-4.84-7.89-4.84-.17 0-.34.08-.42.34-.96 2.15-6.82 8.88-16.29 14.93 2.47 1.45 5.19 2.52 8.07 3.16 1.76-1.29 3.57-2.7 5.42-4.26 2.54 0 6.19-.08 7.8-.08 3.14 0 5.85-.08 8.99-.08 2.68-1.88 5.01-4.21 6.88-6.89z" fill="#ff9464"/>
  <path d="m124.82 16.04c.57.41 1.39 1.3 1.39 2.12 0 .73-1.3 3.91-1.39 4.65-.33 2.85-.49 10.11-.49 13.54 0 .49.16 1.47 1.55 1.47 1.63 0 19.41-8.64 19.41-13.05 0-.49-.57-2.77-.57-3.02 0-.33.57-.33 1.14-.33 5.55 0 8.4 4.81 8.4 6.85 0 1.88-1.22 2.12-3.59 2.61-1.88.41-9.22 4.08-10.76 4.73-2.28.98-14.35 5.3-14.76 5.55-.98.65-.98 1.06-.98 4.16 0 10.68 1.55 12.89 12.23 12.89 3.43 0 6.69-.33 11.91-1.47 1.06-.24 4.65-.98 5.63-.98 1.71 0 3.26 1.31 3.26 2.85 0 6.12-15.66 6.12-20.71 6.12-16.88 0-17.29-7.26-17.29-18.84 0-2.94.24-15.74.24-18.43 0-6.69-1.22-9.7-2.12-11.42-1.22-2.28-1.39-2.53-1.39-2.69 0-.49 1.14-.73 1.88-.73 2.37 0 3.51.57 7.01 3.43z" fill="#301870"/>
  <path d="m145.86 21.42c-.57 0-1.14 0-1.14.33 0 .24.57 2.53.57 3.02 0 2.82-7.28 7.37-12.95 10.29v3.42c3.2-1.18 6.49-2.4 7.57-2.86 1.55-.65 8.89-4.32 10.76-4.73 2.37-.49 3.59-.73 3.59-2.61 0-2.04-2.85-6.85-8.4-6.85z" fill="#ff7030"/>
  <path d="m281.52 55.67c-2.16 1.58-6.4 4.74-8.14 6.81-1.58 1.91-1.74 2.08-2.99 2.08-4.49 0-10.63-5.32-10.63-8.64 0-.58.08-4.4.83-4.4.33 0 2.16 1.41 2.49 1.58 1.08.66 3.82 1.91 5.65 1.91 4.07 0 26.09-14.7 39.88-28.33 1.33-1.33 3.66-3.65 3.82-3.65s.42.25.42.41c0 .75-9.72 16.28-31.32 32.23zm-6.64-23.65c-2.45 0-3.35-1.45-6.34-5.98-3.08-4.62-5.71-5.98-8.24-7.43-.36-.18-.82-.45-.82-.81s.72-.82 1.99-.82c9.69 0 17.3 5.16 17.3 10.51 0 2.72-1.54 4.53-3.9 4.53z" fill="#301870"/>
  <path d="m260.29 18.61c2.54 1.45 5.16 2.81 8.24 7.43 2.99 4.53 3.9 5.98 6.34 5.98s3.9-1.81 3.9-4.53c0-5.34-7.61-10.51-17.3-10.51-1.27 0-1.99.45-1.99.82s.45.63.82.81z" fill="#00a0ff"/>
  <path d="m198.54 21.59c2.78-1.39 3.03-1.56 3.69-1.56.98 0 7.78 3.93 7.78 7.45 0 .98-.33 1.31-1.8 3.28-2.46 3.11-5.65 18.02-5.65 19 0 1.15.41 1.47 4.34 4.26.41.33.98.98.98 1.72 0 .98-1.06 1.39-1.56 1.39-.74 0-4.26-.98-5-1.06-3.28-.49-7.7-.74-10.16-.74-1.39 0-15.81.74-16.54 2.29-1.56 3.44-1.8 4.1-3.6 4.1-2.54 0-2.54-3.93-2.54-4.91 0-14.33-.16-26.45-2.95-30.3-1.23-1.64-1.56-1.8-3.28-2.78-.25-.16-.33-.33-.33-.49 0-.82 2.29-2.05 3.44-2.05 3.36 0 4.91 1.31 5.65 1.88 2.13 1.8 2.21 1.88 4.18 1.88 2.29 0 21.13-2.29 23.34-3.36zm-17.53 6.38c-7.7 1.23-7.7 1.39-7.7 3.77 0 2.54.66 15.32.66 18.18s1.47 2.78 2.29 2.78c.57 0 3.52-.49 5.32-.74 1.15-.16 3.69-.41 6.06-.57 9.09-.49 10.07-.49 10.48-1.72.08-.25 2.7-19.66 2.7-20.39 0-.9 0-3.11-2.21-3.11-3.85 0-15.73 1.47-17.61 1.8z" fill="#301870"/>
  <g fill="#ffb000">
    <path d="m207.88 55.74c0-.74-.57-1.39-.98-1.72-3.93-2.78-4.34-3.11-4.34-4.26 0-.6 1.18-6.32 2.65-11.43-1.56-1-3.34-1.7-5.25-1.99-.77 5.84-1.77 13.19-1.82 13.34-.41 1.23-1.39 1.23-10.48 1.72-1.15.08-2.35.18-3.4.28.18 1.4.58 2.74 1.16 3.98 2.82-.22 5.23-.32 5.76-.32 2.46 0 6.88.25 10.16.74.74.08 4.26 1.06 5 1.06.49 0 1.56-.41 1.56-1.39z"/>
    <circle cx="317.17" cy="55.52" r="17.83"/>
    <path d="m317.17 55.52-6.2-12.26-12.26-6.2 6.21 12.25z"/>
  </g>
  <path d="m307.93 65.19c-.42.66-.82.87-1.32.87-.74 0-1.35-.63-1.35-1.88 0-.55.13-1.06.45-1.43 1.4-1.64 2.64-3.49 3.75-5.6.61-1.16 1.19-2.38 1.72-3.59-.9.16-1.88.34-2.77.61-.45.13-.77.18-1.06.18-1.08 0-1.88-.82-1.88-2.62 0-.64.16-1.35.29-1.64.08-.18.18-.29.26-.29.13 0 .24.16.29.4.24.98.74 1.37 1.59 1.37.74 0 1.66-.11 2.54-.21.79-.11 1.24-.16 1.8-.24.37-1 .71-1.98.9-2.54.24-.71.37-1.24.37-1.64 0-.61-.55-.98-1.98-1-.18 0-.26-.11-.26-.21 0-.13.08-.26.18-.32.77-.42 1.59-.74 2.51-.74 1.59 0 3.14 1.06 3.14 1.8 0 .37-.11.53-.5.85-.34.26-.55.63-.82 1.24-.37.87-.66 1.61-.98 2.41.32-.03.53-.05.79-.05 2.72 0 4.46 1.69 4.46 4.6 0 2.11-.47 4.49-1.24 6.53-.92 2.46-2.14 3.43-3.86 3.43-1.51 0-3.25-1.22-5.02-3.88-.55 1.08-1.32 2.46-2.01 3.59zm2.32-4.17c1.4 1.29 2.43 1.69 3.73 1.69 1.03 0 1.66-.45 2.3-1.69.82-1.59 1.4-4.15 1.4-6.1 0-1.35-.63-1.95-1.77-1.95-.77 0-1.4.08-2.01.24-.98 2.3-2.38 5.26-3.65 7.82zm15.27-4.49c0-.29-.26-.66-.79-1.16-1.27-1.16-2.51-3.41-2.51-4.33 0-.26.08-.4.18-.4s.21.08.32.24c.53.77 1.64 1.66 3.14 2.51 2.32 1.32 3.46 3.01 3.46 4.76 0 1.4-.77 2.25-1.43 2.25-.5 0-.77-.16-1.4-.79-.58-.58-1.51-.85-4.2-.85-.21 0-.32-.11-.32-.24 0-.11.08-.21.26-.27 2.72-.69 3.28-1.11 3.28-1.72zm-2.58-11.1c2.46.24 4.15 1.61 4.15 2.69 0 .66-.4 1.08-.95 1.08s-.74-.18-1.08-.77c-.37-.61-1.06-1.64-2.32-2.46-.18-.11-.26-.24-.26-.34s.11-.21.37-.21h.11zm6.84.61c0 .69-.32.95-.77.95-.32 0-.55-.03-.98-.58-.98-1.27-1.82-1.93-2.62-2.38-.13-.08-.18-.16-.18-.24 0-.13.16-.24.53-.24 2.27 0 4.02 1.19 4.02 2.48z" fill="#fff"/>
  <g fill="#00a0ff">
    <path d="m200.03 99.11c1.23-.82 2.22-1.54 2.07-3.23-.19-2.22-2.39-3.47-4.38-3.29-3.45.3-4.78 2.03-6.72 8.65-.6 2.11-1.26 5.49-1.07 7.62.02.27.13.44.3.42.16-.19.39-.48.54-.77 2.93-4.29 5.81-7.23 9.27-9.41z"/>
    <path d="m201.51 109.77c3.12-.23 4.27-.31 4.98-1.84.78-1.67-.55-3.62-1.75-4.18-5.3-2.47-11.22 6.37-11.56 7.09-.1.22 0 .36.08.39.14.07.25.03.84-.14 1.64-.56 6.15-1.2 7.41-1.32z"/>
    <path d="m163.33 76.52h113.26v8.52h-113.26z"/>
  </g>
  <g fill="#978bb7">
    <path d="m285.54 76.52h2.84v8.52h-2.84z"/>
    <path d="m291.23 76.52h2.84v8.52h-2.84z"/>
    <path d="m288.39 73.68h2.84v8.52h-2.84z" transform="matrix(0 -1 1 0 211.87 367.75)"/>
    <path d="m292.65 80.78h2.84v5.68h-2.84z" transform="matrix(0 -1 1 0 210.44 377.69)"/>
    <circle cx="282.7" cy="79.36" r="2.84"/>
    <path d="m37.77 76.52h2.84v8.52h-2.84z" transform="matrix(-1 0 0 -1 78.38 161.57)"/>
    <path d="m32.09 76.52h2.84v8.52h-2.84z" transform="matrix(-1 0 0 -1 67.02 161.57)"/>
    <path d="m34.93 73.68h2.84v8.52h-2.84z" transform="matrix(0 -1 1 0 -41.59 114.29)"/>
    <path d="m30.67 80.78h2.84v5.68h-2.84z" transform="matrix(0 -1 1 0 -51.54 115.71)"/>
    <circle cx="43.45" cy="79.36" r="2.84"/>
    <path d="m51.92 85.1v-6.73h-1.71v-1.95h5.62v1.95h-1.7v6.73z"/>
    <path d="m56.78 80.96c0-2.68 1.93-4.7 4.57-4.7s4.58 1.96 4.58 4.44-1.99 4.56-4.48 4.56-4.68-1.73-4.68-4.3zm6.94-.18c0-1.36-.97-2.57-2.37-2.57s-2.36 1.16-2.36 2.53.97 2.58 2.39 2.58 2.33-1.16 2.33-2.54z"/>
    <path d="m67.1 80.96c0-2.68 1.93-4.7 4.57-4.7s4.58 1.96 4.58 4.44-1.99 4.56-4.48 4.56-4.68-1.73-4.68-4.3zm6.93-.18c0-1.36-.97-2.57-2.37-2.57s-2.36 1.16-2.36 2.53.97 2.58 2.39 2.58 2.33-1.16 2.33-2.54z"/>
    <path d="m77.41 80.96c0-2.68 1.93-4.7 4.57-4.7s4.58 1.96 4.58 4.44-1.99 4.56-4.48 4.56-4.68-1.73-4.68-4.3zm6.94-.18c0-1.36-.97-2.57-2.37-2.57s-2.36 1.16-2.36 2.53.97 2.58 2.39 2.58 2.33-1.16 2.33-2.54z"/>
    <path d="m87.73 80.96c0-2.68 1.93-4.7 4.57-4.7s4.58 1.96 4.58 4.44-1.99 4.56-4.48 4.56-4.68-1.73-4.68-4.3zm6.93-.18c0-1.36-.97-2.57-2.37-2.57s-2.36 1.16-2.36 2.53.97 2.58 2.39 2.58 2.33-1.16 2.33-2.54z"/>
    <path d="m98.04 80.96c0-2.68 1.93-4.7 4.57-4.7s4.58 1.96 4.58 4.44-1.99 4.56-4.48 4.56-4.68-1.73-4.68-4.3zm6.94-.18c0-1.36-.97-2.57-2.37-2.57s-2.36 1.16-2.36 2.53.97 2.58 2.39 2.58 2.33-1.16 2.33-2.54z"/>
    <path d="m108.36 80.96c0-2.68 1.93-4.7 4.57-4.7s4.58 1.96 4.58 4.44-1.99 4.56-4.48 4.56-4.68-1.73-4.68-4.3zm6.93-.18c0-1.36-.97-2.57-2.37-2.57s-2.36 1.16-2.36 2.53.97 2.58 2.39 2.58 2.33-1.16 2.33-2.54z"/>
    <path d="m130.25 85.1.07-6.49-.02-.02-1.85 6.52h-1.46l-1.88-6.57.07 6.57h-2.04v-8.67h2.85l1.72 5.71h.02l1.7-5.71h2.86v8.67h-2.04z"/>
    <path d="m139.77 85.1-.42-1.25h-3.01l-.46 1.25h-2.38l3.48-8.67h1.75l3.45 8.67h-2.4zm-1.9-5.97h-.04s-.89 2.95-.89 2.95h1.82z"/>
    <path d="m148.78 85.1-3.33-5.3.06 5.3h-2.12v-8.67h1.91l3.38 5.48-.09-5.48h2.12v8.67h-1.92z"/>
    <path d="m154.51 85.1v-3.15l-2.59-5.52h2.4l1.29 3.48 1.3-3.48h2.38l-2.57 5.52v3.15z"/>
  </g>
  <g fill="#fff">
    <path d="m164.75 85.1v-8.67h2.21v6.73h2.57v1.95h-4.78z"/>
    <path d="m170.47 80.96c0-2.68 1.93-4.7 4.57-4.7s4.58 1.96 4.58 4.44-1.99 4.56-4.48 4.56-4.68-1.73-4.68-4.3zm6.93-.18c0-1.36-.97-2.57-2.37-2.57s-2.36 1.16-2.36 2.53.97 2.58 2.39 2.58 2.33-1.16 2.33-2.54z"/>
    <path d="m184.59 78.96c-.09-.62-.35-.84-.79-.84-.41 0-.76.29-.76.68 0 .52.47.75 1.42 1.16 1.91.82 2.39 1.51 2.39 2.65 0 1.68-1.15 2.66-3.02 2.66s-3.13-.98-3.13-2.85v-.19h2.2c.01.71.36 1.18.91 1.18.46 0 .83-.36.83-.83 0-.69-.96-1-1.75-1.31-1.42-.57-2.06-1.32-2.06-2.45 0-1.48 1.43-2.55 3.02-2.55.57 0 1.08.13 1.54.36.93.48 1.37 1.17 1.38 2.33h-2.19z"/>
    <path d="m188.18 85.1v-8.67h2.21v8.67z"/>
    <path d="m197.47 85.1-3.33-5.3.06 5.3h-2.12v-8.67h1.91l3.38 5.48-.09-5.48h2.12v8.67h-1.92z"/>
    <path d="m210.06 80.66c0 2.33-1.71 4.62-4.63 4.62-2.57 0-4.61-2-4.61-4.55s2.12-4.46 4.64-4.46c1.96 0 3.84 1.32 4.34 3.07h-2.48c-.41-.71-1.08-1.12-1.91-1.12-1.39 0-2.37 1.12-2.37 2.52s.91 2.6 2.38 2.6c1.03 0 1.8-.5 2.07-1.39h-2.59v-1.77h5.16v.49z"/>
    <path d="m220.71 85.1v-3.47h-2.84v3.47h-2.21v-8.67h2.21v3.26h2.84v-3.26h2.21v8.67z"/>
    <path d="m224.61 85.1v-8.67h4.82v1.95h-2.7v1.35h2.61v1.95h-2.61v1.49h2.7v1.95h-4.82z"/>
    <path d="m235.12 85.1-2-2.8h-.02v2.8h-2.12v-8.67h2.84c.9 0 1.59.12 2.05.32.94.42 1.59 1.44 1.59 2.67 0 1.37-.82 2.5-2.16 2.73l2.36 2.95h-2.53zm-1.2-4.31c.88 0 1.42-.41 1.42-1.24 0-.75-.56-1.17-1.39-1.17h-.84v2.41h.82z"/>
    <path d="m238.66 80.96c0-2.68 1.93-4.7 4.57-4.7s4.58 1.96 4.58 4.44-1.99 4.56-4.48 4.56-4.68-1.73-4.68-4.3zm6.94-.18c0-1.36-.97-2.57-2.37-2.57s-2.36 1.16-2.36 2.53.97 2.58 2.39 2.58 2.33-1.16 2.33-2.54z"/>
    <path d="m249.24 85.1v-8.67h2.21v8.67z"/>
    <path d="m258.53 85.1-3.33-5.3.06 5.3h-2.12v-8.67h1.91l3.38 5.48-.09-5.48h2.12v8.67h-1.92z"/>
    <path d="m262.15 85.1v-8.67h4.82v1.95h-2.7v1.35h2.61v1.95h-2.61v1.49h2.7v1.95h-4.82z"/>
    <path d="m272.06 78.96c-.09-.62-.35-.84-.79-.84-.41 0-.76.29-.76.68 0 .52.47.75 1.42 1.16 1.91.82 2.39 1.51 2.39 2.65 0 1.68-1.15 2.66-3.02 2.66s-3.13-.98-3.13-2.85v-.19h2.2c.01.71.36 1.18.91 1.18.46 0 .83-.36.83-.83 0-.69-.96-1-1.75-1.31-1.42-.57-2.06-1.32-2.06-2.45 0-1.48 1.43-2.55 3.02-2.55.57 0 1.08.13 1.54.36.93.48 1.37 1.17 1.38 2.33h-2.19z"/>
  </g>
</svg>
